<svg width="12" height="22" viewBox="0 0 12 22" fill="none" xmlns="http://www.w3.org/2000/svg">
<path d="M0.899998 8.1L5.66996 5.98C5.87996 5.89 6.11998 5.89 6.31998 5.98L11.09 8.1C11.51 8.29 11.9 7.78 11.61 7.42L6.60996 1.31C6.26996 0.889995 5.70997 0.889995 5.36997 1.31L0.369968 7.42C0.0899683 7.78 0.479998 8.29 0.899998 8.1Z" fill="#161418"/>
<path d="M0.900006 13.9L5.67997 16.02C5.88997 16.11 6.13 16.11 6.33 16.02L11.11 13.9C11.53 13.71 11.92 14.22 11.63 14.58L6.62999 20.69C6.28999 21.11 5.73 21.11 5.39 20.69L0.389997 14.58C0.0899966 14.22 0.470006 13.71 0.900006 13.9Z" fill="#161418"/>
<path d="M5.78 8.49L1.65 10.55C1.28 10.73 1.28 11.26 1.65 11.44L5.78 13.5C5.92 13.57 6.08995 13.57 6.22995 13.5L10.36 11.44C10.73 11.26 10.73 10.73 10.36 10.55L6.22995 8.49C6.07995 8.42 5.92 8.42 5.78 8.49Z" fill="#161418"/>
</svg>
