<svg width="14" height="19" viewBox="0 0 14 19" fill="none" xmlns="http://www.w3.org/2000/svg">
<path d="M8.58823 0.100586C4.78787 2.32906 5.24458 8.60774 5.24458 8.60774C5.24458 8.60774 3.57277 8.04059 3.57277 5.48846C1.57818 6.66552 0.229126 8.92793 0.229126 11.4435C0.229126 15.2022 3.22312 18.2492 6.91642 18.2492C10.6097 18.2492 13.6037 15.2022 13.6037 11.4435C13.6037 5.91382 8.58823 4.77951 8.58823 0.100586V0.100586ZM7.50382 15.9041C6.16003 16.2451 4.79901 15.4129 4.46391 14.0452C4.12887 12.6776 4.94661 11.2924 6.29048 10.9515C9.5348 10.1282 9.9414 8.27151 9.9414 8.27151C9.9414 8.27151 11.5592 14.8751 7.50382 15.9041Z" fill="#FF6D00"/>
</svg>
