<svg width="176" height="48" viewBox="0 0 176 48" fill="none" xmlns="http://www.w3.org/2000/svg">
<path d="M40.1611 11.0487C40.1611 13.4971 39.6918 15.5477 38.7532 17.2004C37.8147 18.8531 36.4476 20.0978 34.6521 20.9343C32.8769 21.7709 30.7345 22.1892 28.2249 22.1892H22.0425V0.336662H28.8982C31.1834 0.336662 33.1626 0.744739 34.8357 1.56089C36.5292 2.37705 37.8351 3.58087 38.7532 5.17237C39.6918 6.74346 40.1611 8.70223 40.1611 11.0487ZM35.356 11.1711C35.356 9.55919 35.1214 8.23294 34.6521 7.19235C34.1828 6.15175 33.4789 5.38661 32.5403 4.89692C31.6221 4.38682 30.4897 4.13177 29.143 4.13177H26.664V18.3634H28.6534C30.9182 18.3634 32.6015 17.7615 33.7033 16.5577C34.8051 15.3539 35.356 13.5583 35.356 11.1711Z" fill="#161418"/>
<path d="M57.4749 22.1892L55.8834 16.9862H47.9259L46.3344 22.1892H41.3456L49.0583 0.244846H54.7204L62.4636 22.1892H57.4749ZM53.1901 8.0187C53.088 7.67184 52.9554 7.23316 52.7922 6.70266C52.629 6.17216 52.4657 5.63146 52.3025 5.08055C52.1393 4.52965 52.0066 4.05016 51.9046 3.64208C51.8026 4.05016 51.6598 4.56025 51.4761 5.17237C51.3129 5.76408 51.1497 6.33539 50.9865 6.88629C50.8436 7.41679 50.7314 7.79426 50.6498 8.0187L49.0889 13.0993H54.7816L53.1901 8.0187Z" fill="#161418"/>
<path d="M84.466 11.2323C84.466 12.9258 84.2518 14.4663 83.8233 15.8538C83.4152 17.2208 82.7827 18.4043 81.9258 19.404C81.0892 20.4038 80.0078 21.169 78.6815 21.6995C77.3757 22.23 75.8352 22.4952 74.0601 22.4952C72.2849 22.4952 70.7343 22.23 69.408 21.6995C68.1022 21.1486 67.0208 20.3834 66.1638 19.404C65.3272 18.4043 64.6947 17.2106 64.2662 15.8232C63.8582 14.4357 63.6541 12.8952 63.6541 11.2017C63.6541 8.93688 64.0214 6.96791 64.7559 5.29479C65.5109 3.62168 66.6535 2.32604 68.1838 1.40786C69.7345 0.469288 71.7034 0 74.0907 0C76.4575 0 78.4061 0.469288 79.9364 1.40786C81.4667 2.32604 82.5991 3.63188 83.3336 5.3254C84.0886 6.99851 84.466 8.96748 84.466 11.2323ZM68.5204 11.2323C68.5204 12.7626 68.7143 14.0786 69.1019 15.1804C69.4896 16.2823 70.0915 17.129 70.9077 17.7207C71.7238 18.3124 72.7746 18.6083 74.0601 18.6083C75.3863 18.6083 76.4473 18.3124 77.2431 17.7207C78.0592 17.129 78.6509 16.2823 79.0182 15.1804C79.4059 14.0786 79.5997 12.7626 79.5997 11.2323C79.5997 8.92667 79.1712 7.12094 78.3143 5.81509C77.4573 4.50925 76.0494 3.85632 74.0907 3.85632C72.7848 3.85632 71.7238 4.15218 70.9077 4.74389C70.0915 5.3356 69.4896 6.18236 69.1019 7.28417C68.7143 8.38597 68.5204 9.70202 68.5204 11.2323Z" fill="#161418"/>
<path d="M29.0206 25.8414C31.8363 25.8414 33.8869 26.4536 35.1724 27.6778C36.4782 28.8816 37.1311 30.5445 37.1311 32.6665C37.1311 33.6255 36.9883 34.5437 36.7027 35.421C36.417 36.278 35.9375 37.0533 35.2642 37.7471C34.6113 38.4204 33.7441 38.9509 32.6627 39.3386C31.5813 39.7262 30.2449 39.9201 28.6534 39.9201H26.664V47.6939H22.0425V25.8414H29.0206ZM28.7758 29.6366H26.664V36.125H28.1943C29.0716 36.125 29.8266 36.0128 30.4591 35.7883C31.0916 35.5639 31.5813 35.2068 31.9282 34.7171C32.275 34.2274 32.4485 33.5949 32.4485 32.8196C32.4485 31.7382 32.1526 30.9424 31.5609 30.4323C30.9692 29.9018 30.0408 29.6366 28.7758 29.6366Z" fill="#161418"/>
<path d="M45.4538 47.6939H40.8935V24.4336H45.4538V47.6939Z" fill="#161418"/>
<path d="M57.0744 30.6465C59.3188 30.6465 61.0327 31.1362 62.2161 32.1156C63.42 33.0746 64.0219 34.5539 64.0219 36.5535V47.6939H60.8389L59.9513 45.4291H59.8289C59.3596 46.0208 58.8699 46.5105 58.3598 46.8982C57.8701 47.2859 57.2988 47.5613 56.6459 47.7245C56.0134 47.9082 55.2278 48 54.2892 48C53.3099 48 52.4223 47.8164 51.6265 47.4491C50.8512 47.0614 50.2391 46.4799 49.7902 45.7046C49.3413 44.9088 49.1169 43.909 49.1169 42.7052C49.1169 40.9301 49.7392 39.6242 50.9838 38.7877C52.2285 37.9307 54.0954 37.4614 56.5847 37.3798L59.4922 37.288V36.5535C59.4922 35.6761 59.2576 35.0334 58.7883 34.6253C58.3394 34.2172 57.7069 34.0132 56.8907 34.0132C56.0746 34.0132 55.2788 34.1356 54.5035 34.3804C53.7281 34.6049 52.9528 34.8905 52.1774 35.2374L50.6778 32.1462C51.5755 31.6769 52.5651 31.3097 53.6465 31.0444C54.7483 30.7792 55.8909 30.6465 57.0744 30.6465ZM57.7171 40.0119C56.248 40.0527 55.2278 40.318 54.6565 40.8077C54.0852 41.2973 53.7996 41.9401 53.7996 42.7358C53.7996 43.4295 54.0036 43.9294 54.4117 44.2355C54.8197 44.5211 55.3502 44.664 56.0032 44.664C56.9825 44.664 57.8089 44.3783 58.4822 43.807C59.1556 43.2153 59.4922 42.3889 59.4922 41.3279V39.9507L57.7171 40.0119Z" fill="#161418"/>
<path d="M75.729 44.3579C76.2391 44.3579 76.7288 44.3069 77.1981 44.2049C77.6674 44.1029 78.1367 43.9804 78.606 43.8376V47.2349C78.1163 47.4389 77.5042 47.6123 76.7696 47.7552C76.0555 47.9184 75.27 48 74.413 48C73.4132 48 72.5154 47.8368 71.7197 47.5103C70.9444 47.1838 70.322 46.6227 69.8527 45.827C69.4039 45.0108 69.1794 43.8886 69.1794 42.4604V34.4111H67.0064V32.4829L69.5161 30.9526L70.8321 27.4329H73.7397V30.9832H78.4224V34.4111H73.7397V42.4604C73.7397 43.0929 73.9233 43.5724 74.2906 43.8988C74.6578 44.2049 75.1373 44.3579 75.729 44.3579Z" fill="#161418"/>
<path d="M91.2031 34.4111H87.255V47.6939H82.6947V34.4111H80.1851V32.2074L82.6947 30.9832V29.759C82.6947 28.3307 82.9294 27.2289 83.3987 26.4536C83.8883 25.6578 84.5719 25.0967 85.4492 24.7702C86.347 24.4438 87.3978 24.2806 88.6016 24.2806C89.4994 24.2806 90.3053 24.352 91.0195 24.4948C91.754 24.6376 92.3457 24.8008 92.7946 24.9845L91.6316 28.3205C91.2847 28.2185 90.9073 28.1267 90.4992 28.0451C90.0911 27.943 89.6218 27.892 89.0913 27.892C88.4588 27.892 87.9895 28.0859 87.6835 28.4735C87.3978 28.8612 87.255 29.3509 87.255 29.9426V30.9832H91.2031V34.4111Z" fill="#161418"/>
<path d="M108.976 39.308C108.976 40.6954 108.783 41.9299 108.395 43.0113C108.028 44.0927 107.487 45.0108 106.773 45.7658C106.079 46.5003 105.232 47.0614 104.233 47.4491C103.233 47.8164 102.1 48 100.835 48C99.6723 48 98.5909 47.8164 97.5911 47.4491C96.6117 47.0614 95.765 46.5003 95.0508 45.7658C94.3367 45.0108 93.7756 44.0927 93.3675 43.0113C92.9798 41.9299 92.786 40.6954 92.786 39.308C92.786 37.4512 93.1125 35.8903 93.7654 34.6253C94.4183 33.3399 95.3569 32.3605 96.5811 31.6871C97.8053 31.0138 99.254 30.6772 100.927 30.6772C102.498 30.6772 103.886 31.0138 105.09 31.6871C106.293 32.3605 107.242 33.3399 107.936 34.6253C108.63 35.8903 108.976 37.4512 108.976 39.308ZM97.4381 39.308C97.4381 40.4098 97.5503 41.3382 97.7747 42.0931C98.0196 42.8276 98.3971 43.3887 98.9072 43.7764C99.4173 44.1437 100.08 44.3273 100.897 44.3273C101.713 44.3273 102.366 44.1437 102.855 43.7764C103.365 43.3887 103.733 42.8276 103.957 42.0931C104.202 41.3382 104.324 40.4098 104.324 39.308C104.324 38.2062 104.202 37.288 103.957 36.5535C103.733 35.8189 103.365 35.268 102.855 34.9007C102.345 34.5335 101.682 34.3498 100.866 34.3498C99.6621 34.3498 98.7847 34.7681 98.2338 35.6047C97.7033 36.4208 97.4381 37.6553 97.4381 39.308Z" fill="#161418"/>
<path d="M122.08 30.6772C122.304 30.6772 122.57 30.6874 122.876 30.7078C123.182 30.7282 123.427 30.7588 123.61 30.7996L123.274 35.0844C123.131 35.0436 122.917 35.013 122.631 34.9926C122.366 34.9518 122.131 34.9314 121.927 34.9314C121.335 34.9314 120.764 35.013 120.213 35.1762C119.662 35.319 119.162 35.5537 118.713 35.8801C118.285 36.2066 117.938 36.6453 117.673 37.1962C117.428 37.7267 117.306 38.3898 117.306 39.1855V47.6939H112.745V30.9832H116.204L116.877 33.7989H117.091C117.418 33.2276 117.826 32.7073 118.315 32.238C118.805 31.7688 119.366 31.3913 119.999 31.1056C120.652 30.82 121.345 30.6772 122.08 30.6772Z" fill="#161418"/>
<path d="M146.262 30.6772C148.159 30.6772 149.587 31.1668 150.546 32.1462C151.526 33.1052 152.016 34.6559 152.016 36.7983V47.6939H147.455V37.9307C147.455 36.7269 147.251 35.8291 146.843 35.2374C146.435 34.6253 145.803 34.3192 144.946 34.3192C143.742 34.3192 142.885 34.7477 142.375 35.6047C141.865 36.4616 141.61 37.6961 141.61 39.308V47.6939H137.049V37.9307C137.049 37.135 136.958 36.4718 136.774 35.9413C136.59 35.4108 136.315 35.013 135.948 34.7477C135.58 34.4621 135.111 34.3192 134.54 34.3192C133.703 34.3192 133.04 34.5335 132.55 34.962C132.061 35.3904 131.714 36.0128 131.51 36.8289C131.306 37.6451 131.204 38.6448 131.204 39.8283V47.6939H126.643V30.9832H130.132L130.745 33.1256H130.989C131.336 32.5543 131.765 32.0952 132.275 31.7484C132.785 31.3811 133.346 31.1158 133.958 30.9526C134.591 30.769 135.223 30.6772 135.856 30.6772C137.08 30.6772 138.121 30.8812 138.977 31.2893C139.834 31.6769 140.487 32.2891 140.936 33.1256H141.334C141.844 32.2687 142.548 31.6463 143.446 31.2587C144.364 30.871 145.303 30.6772 146.262 30.6772Z" fill="#161418"/>
<path d="M0 0.0850167H13.6026V13.6876H0V0.0850167Z" fill="#161418"/>
<path d="M162.31 34.0914H175.913V47.6939H162.31V34.0914Z" fill="#161418"/>
</svg>
